<mxfile host="app.diagrams.net" modified="2020-10-28T06:06:45.260Z" agent="5.0 (Macintosh; Intel Mac OS X 10_14_6) AppleWebKit/537.36 (KHTML, like Gecko) Chrome/85.0.4183.121 Safari/537.36" etag="6xevz-Z_UkC96UsE63ff" version="13.8.5" type="github">
  <diagram id="Rl4V-yFyULAMdKKbUMDl" name="Page-1">
    <mxGraphModel dx="922" dy="585" grid="1" gridSize="10" guides="1" tooltips="1" connect="1" arrows="1" fold="1" page="1" pageScale="1" pageWidth="827" pageHeight="1169" math="0" shadow="0">
      <root>
        <mxCell id="0" />
        <mxCell id="1" parent="0" />
        <mxCell id="6beYRVkDOcadKEBixAy4-1" value="&lt;p class=&quot;MsoNormal&quot; style=&quot;margin: 0cm 0cm 8pt; line-height: 15.6933px; font-size: 20px;&quot;&gt;&lt;span style=&quot;font-size: 20px;&quot;&gt;&lt;span lang=&quot;EN-US&quot; style=&quot;font-size: 20px; line-height: 17.12px;&quot;&gt;AR&lt;/span&gt;&lt;/span&gt;&lt;span style=&quot;font-size: 20px;&quot;&gt;&lt;span style=&quot;font-size: 20px; line-height: 17.12px;&quot;&gt;-навигация. Путь клиента.&lt;/span&gt;&lt;/span&gt;&lt;/p&gt;" style="text;html=1;align=center;verticalAlign=middle;resizable=0;points=[];autosize=1;fontFamily=Helvetica;fontStyle=1;fontSize=20;" vertex="1" parent="1">
          <mxGeometry x="80" y="50" width="310" height="30" as="geometry" />
        </mxCell>
        <mxCell id="6beYRVkDOcadKEBixAy4-2" value="Клиент" style="shape=umlActor;verticalLabelPosition=bottom;verticalAlign=top;html=1;outlineConnect=0;fontFamily=Helvetica;align=center;" vertex="1" parent="1">
          <mxGeometry x="20" y="270" width="30" height="60" as="geometry" />
        </mxCell>
        <mxCell id="6beYRVkDOcadKEBixAy4-3" value="Пилот (без API)" style="text;html=1;align=center;verticalAlign=middle;resizable=0;points=[];autosize=1;fontSize=16;fontFamily=Helvetica;" vertex="1" parent="1">
          <mxGeometry x="80" y="100" width="130" height="20" as="geometry" />
        </mxCell>
        <mxCell id="6beYRVkDOcadKEBixAy4-6" value="" style="endArrow=classic;html=1;fontFamily=Helvetica;fontSize=16;" edge="1" parent="1">
          <mxGeometry width="50" height="50" relative="1" as="geometry">
            <mxPoint x="60" y="300" as="sourcePoint" />
            <mxPoint x="120" y="180" as="targetPoint" />
          </mxGeometry>
        </mxCell>
        <mxCell id="6beYRVkDOcadKEBixAy4-7" value="" style="endArrow=classic;html=1;fontFamily=Helvetica;fontSize=16;" edge="1" parent="1">
          <mxGeometry width="50" height="50" relative="1" as="geometry">
            <mxPoint x="60" y="299.76" as="sourcePoint" />
            <mxPoint x="130" y="300" as="targetPoint" />
          </mxGeometry>
        </mxCell>
        <mxCell id="6beYRVkDOcadKEBixAy4-8" value="" style="endArrow=classic;html=1;fontFamily=Helvetica;fontSize=16;" edge="1" parent="1">
          <mxGeometry width="50" height="50" relative="1" as="geometry">
            <mxPoint x="60" y="300" as="sourcePoint" />
            <mxPoint x="120" y="420" as="targetPoint" />
          </mxGeometry>
        </mxCell>
        <mxCell id="6beYRVkDOcadKEBixAy4-9" value="&lt;font style=&quot;font-size: 12px&quot;&gt;Физ. лицо&lt;/font&gt;" style="shape=umlActor;verticalLabelPosition=bottom;verticalAlign=top;html=1;outlineConnect=0;fontFamily=Helvetica;fontSize=16;align=center;" vertex="1" parent="1">
          <mxGeometry x="130" y="140" width="30" height="60" as="geometry" />
        </mxCell>
        <mxCell id="6beYRVkDOcadKEBixAy4-10" value="&lt;font style=&quot;font-size: 12px&quot;&gt;Юр. лицо&lt;/font&gt;" style="shape=umlActor;verticalLabelPosition=bottom;verticalAlign=top;html=1;outlineConnect=0;fontFamily=Helvetica;fontSize=16;align=center;" vertex="1" parent="1">
          <mxGeometry x="130" y="270" width="30" height="60" as="geometry" />
        </mxCell>
        <mxCell id="6beYRVkDOcadKEBixAy4-11" value="&lt;font style=&quot;font-size: 12px&quot;&gt;Привилегия&lt;/font&gt;" style="shape=umlActor;verticalLabelPosition=bottom;verticalAlign=top;html=1;outlineConnect=0;fontFamily=Helvetica;fontSize=16;align=center;" vertex="1" parent="1">
          <mxGeometry x="130" y="400" width="30" height="60" as="geometry" />
        </mxCell>
        <mxCell id="6beYRVkDOcadKEBixAy4-12" value="" style="endArrow=classic;html=1;fontFamily=Helvetica;fontSize=16;" edge="1" parent="1">
          <mxGeometry width="50" height="50" relative="1" as="geometry">
            <mxPoint x="170" y="169.71" as="sourcePoint" />
            <mxPoint x="200" y="169.71" as="targetPoint" />
            <Array as="points">
              <mxPoint x="180" y="169.71" />
            </Array>
          </mxGeometry>
        </mxCell>
        <mxCell id="6beYRVkDOcadKEBixAy4-17" value="Входит в отделение банка" style="ellipse;fontFamily=Helvetica;fontSize=9;align=center;verticalAlign=middle;horizontal=1;spacing=2;whiteSpace=wrap;html=1;" vertex="1" parent="1">
          <mxGeometry x="210" y="147.5" width="70" height="45" as="geometry" />
        </mxCell>
        <mxCell id="6beYRVkDOcadKEBixAy4-24" value="" style="endArrow=classic;html=1;fontFamily=Helvetica;fontSize=16;" edge="1" parent="1">
          <mxGeometry width="50" height="50" relative="1" as="geometry">
            <mxPoint x="170" y="429.71000000000004" as="sourcePoint" />
            <mxPoint x="200" y="429.71000000000004" as="targetPoint" />
            <Array as="points">
              <mxPoint x="180" y="429.71000000000004" />
            </Array>
          </mxGeometry>
        </mxCell>
        <mxCell id="6beYRVkDOcadKEBixAy4-25" value="Входит в отделение банка" style="ellipse;fontFamily=Helvetica;fontSize=9;align=center;verticalAlign=middle;horizontal=1;spacing=2;whiteSpace=wrap;html=1;" vertex="1" parent="1">
          <mxGeometry x="210" y="407.5" width="70" height="45" as="geometry" />
        </mxCell>
        <mxCell id="6beYRVkDOcadKEBixAy4-32" value="" style="endArrow=classic;html=1;fontFamily=Helvetica;fontSize=16;" edge="1" parent="1">
          <mxGeometry width="50" height="50" relative="1" as="geometry">
            <mxPoint x="290" y="169.71000000000004" as="sourcePoint" />
            <mxPoint x="320" y="169.71000000000004" as="targetPoint" />
            <Array as="points">
              <mxPoint x="300" y="169.71" />
            </Array>
          </mxGeometry>
        </mxCell>
        <mxCell id="6beYRVkDOcadKEBixAy4-33" value="Получает талон через СУО" style="ellipse;fontFamily=Helvetica;fontSize=9;align=center;verticalAlign=middle;horizontal=1;spacing=2;whiteSpace=wrap;html=1;" vertex="1" parent="1">
          <mxGeometry x="330" y="143.75" width="80" height="52.5" as="geometry" />
        </mxCell>
        <mxCell id="6beYRVkDOcadKEBixAy4-34" value="" style="endArrow=classic;html=1;fontFamily=Helvetica;fontSize=16;" edge="1" parent="1">
          <mxGeometry width="50" height="50" relative="1" as="geometry">
            <mxPoint x="420" y="169.58000000000004" as="sourcePoint" />
            <mxPoint x="460" y="170" as="targetPoint" />
            <Array as="points">
              <mxPoint x="430" y="169.58" />
            </Array>
          </mxGeometry>
        </mxCell>
        <mxCell id="6beYRVkDOcadKEBixAy4-35" value="Сканирует QR-код на плакате рядом с СУО" style="ellipse;fontFamily=Helvetica;fontSize=9;align=center;verticalAlign=middle;horizontal=1;spacing=2;whiteSpace=wrap;html=1;" vertex="1" parent="1">
          <mxGeometry x="470" y="135.94" width="90" height="68.12" as="geometry" />
        </mxCell>
        <mxCell id="6beYRVkDOcadKEBixAy4-46" value="Приложение уже установлено?" style="rhombus;whiteSpace=wrap;html=1;fontFamily=Helvetica;fontSize=9;align=center;fillColor=none;" vertex="1" parent="1">
          <mxGeometry x="620" y="135" width="110" height="70" as="geometry" />
        </mxCell>
        <mxCell id="6beYRVkDOcadKEBixAy4-47" value="Нет" style="edgeStyle=orthogonalEdgeStyle;html=1;align=left;verticalAlign=bottom;endArrow=open;endSize=8;fontFamily=Helvetica;fontSize=9;exitX=0.5;exitY=0;exitDx=0;exitDy=0;" edge="1" source="6beYRVkDOcadKEBixAy4-46" parent="1">
          <mxGeometry x="0.1429" y="-20" relative="1" as="geometry">
            <mxPoint x="720" y="110" as="targetPoint" />
            <Array as="points">
              <mxPoint x="675" y="110" />
            </Array>
            <mxPoint as="offset" />
          </mxGeometry>
        </mxCell>
        <mxCell id="6beYRVkDOcadKEBixAy4-48" value="Да" style="edgeStyle=orthogonalEdgeStyle;html=1;align=left;verticalAlign=top;endArrow=open;endSize=8;fontFamily=Helvetica;fontSize=9;exitX=1;exitY=0.5;exitDx=0;exitDy=0;" edge="1" source="6beYRVkDOcadKEBixAy4-46" parent="1">
          <mxGeometry x="-1" relative="1" as="geometry">
            <mxPoint x="820" y="170" as="targetPoint" />
            <mxPoint x="750" y="170" as="sourcePoint" />
          </mxGeometry>
        </mxCell>
        <mxCell id="6beYRVkDOcadKEBixAy4-49" value="" style="endArrow=classic;html=1;fontFamily=Helvetica;fontSize=9;" edge="1" parent="1">
          <mxGeometry width="50" height="50" relative="1" as="geometry">
            <mxPoint x="570" y="170" as="sourcePoint" />
            <mxPoint x="610" y="170" as="targetPoint" />
          </mxGeometry>
        </mxCell>
        <mxCell id="6beYRVkDOcadKEBixAy4-50" value="Устанавливает приложение" style="ellipse;fontFamily=Helvetica;fontSize=9;align=center;verticalAlign=middle;horizontal=1;spacing=2;whiteSpace=wrap;html=1;" vertex="1" parent="1">
          <mxGeometry x="730" y="87.81" width="80" height="44.37" as="geometry" />
        </mxCell>
        <mxCell id="6beYRVkDOcadKEBixAy4-52" value="" style="endArrow=classic;html=1;strokeColor=#000000;fontFamily=Helvetica;fontSize=9;" edge="1" parent="1">
          <mxGeometry width="50" height="50" relative="1" as="geometry">
            <mxPoint x="820" y="110" as="sourcePoint" />
            <mxPoint x="870" y="130" as="targetPoint" />
            <Array as="points">
              <mxPoint x="870" y="110" />
            </Array>
          </mxGeometry>
        </mxCell>
        <mxCell id="6beYRVkDOcadKEBixAy4-53" value="Дожидается, когда на табло появится номер окна" style="ellipse;fontFamily=Helvetica;fontSize=9;align=center;verticalAlign=middle;horizontal=1;spacing=2;whiteSpace=wrap;html=1;" vertex="1" parent="1">
          <mxGeometry x="827" y="138.44" width="93" height="63.13" as="geometry" />
        </mxCell>
        <mxCell id="6beYRVkDOcadKEBixAy4-54" value="" style="endArrow=classic;html=1;fontFamily=Helvetica;fontSize=16;" edge="1" parent="1">
          <mxGeometry width="50" height="50" relative="1" as="geometry">
            <mxPoint x="930" y="169.71000000000004" as="sourcePoint" />
            <mxPoint x="960" y="169.71000000000004" as="targetPoint" />
            <Array as="points">
              <mxPoint x="940" y="169.71" />
            </Array>
          </mxGeometry>
        </mxCell>
        <mxCell id="6beYRVkDOcadKEBixAy4-55" value="Вводит номер окна в приложение" style="ellipse;fontFamily=Helvetica;fontSize=9;align=center;verticalAlign=middle;horizontal=1;spacing=2;whiteSpace=wrap;html=1;" vertex="1" parent="1">
          <mxGeometry x="970" y="143.75" width="80" height="52.5" as="geometry" />
        </mxCell>
        <mxCell id="6beYRVkDOcadKEBixAy4-56" value="" style="endArrow=classic;html=1;fontFamily=Helvetica;fontSize=16;" edge="1" parent="1">
          <mxGeometry width="50" height="50" relative="1" as="geometry">
            <mxPoint x="1060" y="169.71000000000004" as="sourcePoint" />
            <mxPoint x="1090" y="169.71000000000004" as="targetPoint" />
            <Array as="points">
              <mxPoint x="1070" y="169.71" />
            </Array>
          </mxGeometry>
        </mxCell>
        <mxCell id="6beYRVkDOcadKEBixAy4-57" value="Сканирует ближайшую AR-метку" style="ellipse;fontFamily=Helvetica;fontSize=9;align=center;verticalAlign=middle;horizontal=1;spacing=2;whiteSpace=wrap;html=1;" vertex="1" parent="1">
          <mxGeometry x="1100" y="143.75" width="80" height="52.5" as="geometry" />
        </mxCell>
        <mxCell id="6beYRVkDOcadKEBixAy4-58" value="Всплывающее уведомление, требующее просканировать метку (?)" style="text;html=1;align=center;verticalAlign=middle;resizable=0;points=[];autosize=1;fontSize=9;fontFamily=Helvetica;fontColor=#999999;" vertex="1" parent="1">
          <mxGeometry x="935" y="87.81" width="300" height="20" as="geometry" />
        </mxCell>
        <mxCell id="6beYRVkDOcadKEBixAy4-62" value="" style="endArrow=none;dashed=1;html=1;labelBackgroundColor=none;strokeColor=#000000;fontFamily=Helvetica;fontSize=9;fontColor=#999999;entryX=0.448;entryY=1.138;entryDx=0;entryDy=0;entryPerimeter=0;" edge="1" parent="1" target="6beYRVkDOcadKEBixAy4-58">
          <mxGeometry width="50" height="50" relative="1" as="geometry">
            <mxPoint x="1070" y="160" as="sourcePoint" />
            <mxPoint x="1140" y="220" as="targetPoint" />
          </mxGeometry>
        </mxCell>
        <mxCell id="6beYRVkDOcadKEBixAy4-63" value="" style="endArrow=classic;html=1;fontFamily=Helvetica;fontSize=16;" edge="1" parent="1">
          <mxGeometry width="50" height="50" relative="1" as="geometry">
            <mxPoint x="1190" y="169.71000000000004" as="sourcePoint" />
            <mxPoint x="1220" y="169.71000000000004" as="targetPoint" />
            <Array as="points">
              <mxPoint x="1200" y="169.71" />
            </Array>
          </mxGeometry>
        </mxCell>
        <mxCell id="6beYRVkDOcadKEBixAy4-64" value="Следует построенному маршруту" style="ellipse;fontFamily=Helvetica;fontSize=9;align=center;verticalAlign=middle;horizontal=1;spacing=2;whiteSpace=wrap;html=1;" vertex="1" parent="1">
          <mxGeometry x="1230" y="143.75" width="80" height="52.5" as="geometry" />
        </mxCell>
        <mxCell id="6beYRVkDOcadKEBixAy4-65" value="" style="endArrow=classic;html=1;fontFamily=Helvetica;fontSize=16;" edge="1" parent="1">
          <mxGeometry width="50" height="50" relative="1" as="geometry">
            <mxPoint x="290" y="429.58000000000004" as="sourcePoint" />
            <mxPoint x="330" y="430" as="targetPoint" />
            <Array as="points">
              <mxPoint x="300" y="429.58000000000004" />
            </Array>
          </mxGeometry>
        </mxCell>
        <mxCell id="6beYRVkDOcadKEBixAy4-66" value="Сканирует QR-код на плакате" style="ellipse;fontFamily=Helvetica;fontSize=9;align=center;verticalAlign=middle;horizontal=1;spacing=2;whiteSpace=wrap;html=1;" vertex="1" parent="1">
          <mxGeometry x="340" y="395.94" width="90" height="68.12" as="geometry" />
        </mxCell>
        <mxCell id="6beYRVkDOcadKEBixAy4-73" value="Приложение уже установлено?" style="rhombus;whiteSpace=wrap;html=1;fontFamily=Helvetica;fontSize=9;align=center;fillColor=none;" vertex="1" parent="1">
          <mxGeometry x="490" y="394.06" width="110" height="70" as="geometry" />
        </mxCell>
        <mxCell id="6beYRVkDOcadKEBixAy4-74" value="Нет" style="edgeStyle=orthogonalEdgeStyle;html=1;align=left;verticalAlign=bottom;endArrow=open;endSize=8;fontFamily=Helvetica;fontSize=9;exitX=0.5;exitY=1;exitDx=0;exitDy=0;" edge="1" parent="1" source="6beYRVkDOcadKEBixAy4-73">
          <mxGeometry x="-0.6061" y="5" relative="1" as="geometry">
            <mxPoint x="600" y="490" as="targetPoint" />
            <Array as="points">
              <mxPoint x="545" y="490" />
              <mxPoint x="600" y="490" />
            </Array>
            <mxPoint as="offset" />
          </mxGeometry>
        </mxCell>
        <mxCell id="6beYRVkDOcadKEBixAy4-75" value="Да" style="edgeStyle=orthogonalEdgeStyle;html=1;align=left;verticalAlign=top;endArrow=open;endSize=8;fontFamily=Helvetica;fontSize=9;exitX=1;exitY=0.5;exitDx=0;exitDy=0;" edge="1" parent="1" source="6beYRVkDOcadKEBixAy4-73">
          <mxGeometry x="-1" relative="1" as="geometry">
            <mxPoint x="680" y="429" as="targetPoint" />
            <mxPoint x="620" y="429.06" as="sourcePoint" />
          </mxGeometry>
        </mxCell>
        <mxCell id="6beYRVkDOcadKEBixAy4-76" value="" style="endArrow=classic;html=1;fontFamily=Helvetica;fontSize=9;" edge="1" parent="1">
          <mxGeometry width="50" height="50" relative="1" as="geometry">
            <mxPoint x="440" y="429.06" as="sourcePoint" />
            <mxPoint x="480" y="429.06" as="targetPoint" />
          </mxGeometry>
        </mxCell>
        <mxCell id="6beYRVkDOcadKEBixAy4-80" value="Устанавливает приложение" style="ellipse;fontFamily=Helvetica;fontSize=9;align=center;verticalAlign=middle;horizontal=1;spacing=2;whiteSpace=wrap;html=1;" vertex="1" parent="1">
          <mxGeometry x="605" y="470" width="80" height="44.37" as="geometry" />
        </mxCell>
        <mxCell id="6beYRVkDOcadKEBixAy4-81" value="" style="endArrow=classic;html=1;strokeColor=#000000;fontFamily=Helvetica;fontSize=9;" edge="1" parent="1">
          <mxGeometry width="50" height="50" relative="1" as="geometry">
            <mxPoint x="695.0000000000002" y="492.19" as="sourcePoint" />
            <mxPoint x="745" y="470" as="targetPoint" />
            <Array as="points">
              <mxPoint x="745" y="492.19" />
            </Array>
          </mxGeometry>
        </mxCell>
        <mxCell id="6beYRVkDOcadKEBixAy4-84" value="Клиент знает имя менеджера?" style="rhombus;whiteSpace=wrap;html=1;fontFamily=Helvetica;fontSize=9;align=center;fillColor=none;" vertex="1" parent="1">
          <mxGeometry x="685" y="394.06" width="110" height="70" as="geometry" />
        </mxCell>
        <mxCell id="6beYRVkDOcadKEBixAy4-85" value="Нет" style="edgeStyle=orthogonalEdgeStyle;html=1;align=left;verticalAlign=bottom;endArrow=open;endSize=8;fontFamily=Helvetica;fontSize=9;exitX=0.5;exitY=0;exitDx=0;exitDy=0;" edge="1" parent="1" source="6beYRVkDOcadKEBixAy4-84">
          <mxGeometry x="-0.6061" y="5" relative="1" as="geometry">
            <mxPoint x="795" y="380" as="targetPoint" />
            <Array as="points">
              <mxPoint x="740" y="380" />
              <mxPoint x="795" y="380" />
            </Array>
            <mxPoint as="offset" />
          </mxGeometry>
        </mxCell>
        <mxCell id="6beYRVkDOcadKEBixAy4-86" value="Да" style="edgeStyle=orthogonalEdgeStyle;html=1;align=left;verticalAlign=top;endArrow=open;endSize=8;fontFamily=Helvetica;fontSize=9;exitX=1;exitY=0.5;exitDx=0;exitDy=0;" edge="1" parent="1" source="6beYRVkDOcadKEBixAy4-84">
          <mxGeometry x="-1" relative="1" as="geometry">
            <mxPoint x="840" y="429" as="targetPoint" />
            <mxPoint x="815" y="429.06" as="sourcePoint" />
          </mxGeometry>
        </mxCell>
        <mxCell id="6beYRVkDOcadKEBixAy4-87" value="Вводит имя менеджера" style="ellipse;fontFamily=Helvetica;fontSize=9;align=center;verticalAlign=middle;horizontal=1;spacing=2;whiteSpace=wrap;html=1;" vertex="1" parent="1">
          <mxGeometry x="850" y="402.96999999999997" width="80" height="54.06" as="geometry" />
        </mxCell>
        <mxCell id="6beYRVkDOcadKEBixAy4-88" value="Выбирает пункт &quot;не знаю имя&quot;" style="ellipse;fontFamily=Helvetica;fontSize=9;align=center;verticalAlign=middle;horizontal=1;spacing=2;whiteSpace=wrap;html=1;" vertex="1" parent="1">
          <mxGeometry x="800" y="357.97" width="70" height="45" as="geometry" />
        </mxCell>
        <mxCell id="6beYRVkDOcadKEBixAy4-90" value="" style="endArrow=classic;html=1;fontFamily=Helvetica;fontSize=16;" edge="1" parent="1">
          <mxGeometry width="50" height="50" relative="1" as="geometry">
            <mxPoint x="940.0000000000002" y="429.71000000000004" as="sourcePoint" />
            <mxPoint x="970.0000000000002" y="429.71000000000004" as="targetPoint" />
            <Array as="points">
              <mxPoint x="950" y="429.71000000000004" />
            </Array>
          </mxGeometry>
        </mxCell>
        <mxCell id="6beYRVkDOcadKEBixAy4-91" value="Сканирует ближайшую AR-метку" style="ellipse;fontFamily=Helvetica;fontSize=9;align=center;verticalAlign=middle;horizontal=1;spacing=2;whiteSpace=wrap;html=1;" vertex="1" parent="1">
          <mxGeometry x="980" y="403.75" width="80" height="52.5" as="geometry" />
        </mxCell>
        <mxCell id="6beYRVkDOcadKEBixAy4-92" value="" style="endArrow=classic;html=1;fontFamily=Helvetica;fontSize=16;" edge="1" parent="1">
          <mxGeometry width="50" height="50" relative="1" as="geometry">
            <mxPoint x="1070" y="429.71000000000004" as="sourcePoint" />
            <mxPoint x="1100" y="429.71000000000004" as="targetPoint" />
            <Array as="points">
              <mxPoint x="1080" y="429.71000000000004" />
            </Array>
          </mxGeometry>
        </mxCell>
        <mxCell id="6beYRVkDOcadKEBixAy4-93" value="Следует построенному маршруту" style="ellipse;fontFamily=Helvetica;fontSize=9;align=center;verticalAlign=middle;horizontal=1;spacing=2;whiteSpace=wrap;html=1;" vertex="1" parent="1">
          <mxGeometry x="1110" y="403.75" width="80" height="52.5" as="geometry" />
        </mxCell>
        <mxCell id="6beYRVkDOcadKEBixAy4-94" value="" style="endArrow=none;dashed=1;html=1;labelBackgroundColor=none;strokeColor=#000000;fontFamily=Helvetica;fontSize=9;fontColor=#999999;" edge="1" parent="1">
          <mxGeometry width="50" height="50" relative="1" as="geometry">
            <mxPoint x="960" y="410" as="sourcePoint" />
            <mxPoint x="1070" y="110" as="targetPoint" />
          </mxGeometry>
        </mxCell>
        <mxCell id="6beYRVkDOcadKEBixAy4-95" value="" style="endArrow=classic;html=1;labelBackgroundColor=none;strokeColor=#000000;fontFamily=Helvetica;fontSize=9;fontColor=#999999;" edge="1" parent="1">
          <mxGeometry width="50" height="50" relative="1" as="geometry">
            <mxPoint x="880" y="380" as="sourcePoint" />
            <mxPoint x="1020" y="400" as="targetPoint" />
            <Array as="points">
              <mxPoint x="1020" y="380" />
            </Array>
          </mxGeometry>
        </mxCell>
      </root>
    </mxGraphModel>
  </diagram>
</mxfile>
